<svg id="Group_7731" data-name="Group 7731" xmlns="http://www.w3.org/2000/svg" width="109.25" height="95" viewBox="0 0 109.25 95">
  <path id="Path_11943" data-name="Path 11943" d="M2.6,55.312c0,26.234,20.516,47.5,45.824,47.5s45.824-21.266,45.824-47.5-20.516-47.5-45.824-47.5S2.6,29.078,2.6,55.312Z" transform="translate(-2.604 -7.812)" fill="#ff0303"/>
  <path id="Path_11944" data-name="Path 11944" d="M48.428,7.812C23.12,7.812,2.6,29.078,2.6,55.312s20.516,47.5,45.824,47.5,45.824-21.266,45.824-47.5S73.735,7.812,48.428,7.812Zm0,87.875c-23.093,0-41.814-19.405-41.814-43.344S25.334,9,48.428,9,90.242,28.405,90.242,52.343,71.521,95.687,48.428,95.687Z" transform="translate(-2.604 -7.812)" fill="#fa0a0a"/>
  <path id="Path_11945" data-name="Path 11945" d="M75.521,24.356c0,1.945,6.308,3.522,14.09,3.522S103.7,26.3,103.7,24.356s-6.308-3.523-14.09-3.523S75.521,22.41,75.521,24.356Z" transform="translate(-43.546 -14.962)" fill="#525252"/>
  <path id="Path_11946" data-name="Path 11946" d="M167.991,133.731c0,1.949-2.63,3.522-5.871,3.522s-5.871-1.573-5.871-3.522,2.63-3.523,5.871-3.523S167.991,131.782,167.991,133.731Z" transform="translate(-88.561 -74.345)" fill="#f2c768"/>
  <path id="Path_11947" data-name="Path 11947" d="M31.25,133.731c0,1.949,2.63,3.522,5.871,3.522s5.871-1.573,5.871-3.522-2.63-3.523-5.871-3.523S31.25,131.782,31.25,133.731Z" transform="translate(-18.334 -74.345)" fill="#f2c768"/>
  <path id="Path_11948" data-name="Path 11948" d="M40.643,113.228a1.174,1.174,0,0,1-1.174-1.174,2.935,2.935,0,0,0-5.871,0,1.174,1.174,0,1,1-2.348,0,5.284,5.284,0,0,1,10.567,0A1.174,1.174,0,0,1,40.643,113.228Z" transform="translate(-18.334 -61.608)" fill="#45413c"/>
  <path id="Path_11949" data-name="Path 11949" d="M168.247,113.228a1.174,1.174,0,0,1-1.174-1.174,2.935,2.935,0,0,0-5.871,0,1.174,1.174,0,1,1-2.348,0,5.284,5.284,0,0,1,10.567,0A1.174,1.174,0,0,1,168.247,113.228Z" transform="translate(-89.999 -61.608)" fill="#45413c"/>
  <path id="Path_11950" data-name="Path 11950" d="M208.346,128.2A2.186,2.186,0,0,0,207,126.87l-8.752-2.91a2.859,2.859,0,0,1-1.8-1.841l-2.923-8.789a2.219,2.219,0,0,0-2.065-1.455h0a2.151,2.151,0,0,0-2.051,1.482l-2.939,8.771a2.854,2.854,0,0,1-1.836,1.831l-8.783,2.92a2.184,2.184,0,0,0,.021,4.121l8.76,2.936a2.858,2.858,0,0,1,1.795,1.8l2.932,8.75a2.157,2.157,0,0,0,2.06,1.491h.005a2.224,2.224,0,0,0,2.065-1.48l3.407-10.108,10.13-3.391a2.184,2.184,0,0,0,1.322-2.79Z" transform="translate(-99.224 -63.887)" fill="#cecece"/>
  <g id="Group_7730" data-name="Group 7730" transform="translate(21.493 59.661)">
    <path id="Path_11951" data-name="Path 11951" d="M78.177,162.915c21.6,0,24.492-9.017,23.224-16.438a8.007,8.007,0,0,0-10.708-5.542,40.693,40.693,0,0,1-25.033,0,8.009,8.009,0,0,0-10.708,5.542C53.685,153.9,56.573,162.915,78.177,162.915Z" transform="translate(-53.523 -139.2)" fill="#fff"/>
    <path id="Path_11952" data-name="Path 11952" d="M76.744,162.655c-10.763,0-18.109-2.24-21.836-6.658-2.456-2.912-3.313-6.663-2.546-11.152,0-.028.01-.055.017-.083A9.183,9.183,0,0,1,64.627,138.4a37.047,37.047,0,0,0,12.107,1.9,36.922,36.922,0,0,0,12.127-1.9A9.352,9.352,0,0,1,90,138.036a9.183,9.183,0,0,1,11.107,6.727c.006.028.012.055.017.083.767,4.488-.09,8.24-2.546,11.152C94.853,160.415,87.506,162.655,76.744,162.655ZM54.669,145.284c-.633,3.755.051,6.85,2.033,9.2,3.26,3.864,10,5.823,20.041,5.823s16.781-1.96,20.041-5.823c1.982-2.349,2.666-5.444,2.033-9.2a6.833,6.833,0,0,0-8.256-4.967,6.865,6.865,0,0,0-.873.277l-.058.021a41.863,41.863,0,0,1-25.774,0l-.059-.021a6.833,6.833,0,0,0-8.861,3.857A6.918,6.918,0,0,0,54.669,145.284Z" transform="translate(-52.09 -137.767)" fill="#45413c"/>
  </g>
  <path id="Path_11953" data-name="Path 11953" d="M77.367,161.61l-.579,0a77.316,77.316,0,0,1-12.811-.978,41.253,41.253,0,0,1-11.1-3.285,1.174,1.174,0,0,1,.975-2.136,38.943,38.943,0,0,0,10.486,3.1,73.888,73.888,0,0,0,12.453.95,74.53,74.53,0,0,0,12.456-.947,38.967,38.967,0,0,0,10.5-3.1,1.174,1.174,0,0,1,.976,2.136A41.286,41.286,0,0,1,89.6,160.632,77.221,77.221,0,0,1,77.367,161.61Z" transform="translate(-30.651 -87.882)" fill="#45413c"/>
  <path id="Path_11954" data-name="Path 11954" d="M74.04,161.984a1.173,1.173,0,0,1-1.162-1.353l3.029-19.586a1.174,1.174,0,0,1,2.321.36L75.2,160.989A1.174,1.174,0,0,1,74.04,161.984Z" transform="translate(-41.868 -79.36)" fill="#45413c"/>
  <path id="Path_11955" data-name="Path 11955" d="M105.341,165.8a1.174,1.174,0,0,1-1.174-1.175v-19.96a1.174,1.174,0,1,1,2.348,0v19.96A1.174,1.174,0,0,1,105.341,165.8Z" transform="translate(-59.333 -81.248)" fill="#45413c"/>
  <path id="Path_11956" data-name="Path 11956" d="M132.98,161.985a1.175,1.175,0,0,1-1.159-1L128.815,141.4a1.174,1.174,0,1,1,2.321-.355l3.006,19.583a1.173,1.173,0,0,1-1.162,1.353Z" transform="translate(-73.127 -79.36)" fill="#45413c"/>
</svg>
