<svg id="first-svg" xmlns="http://www.w3.org/2000/svg" width="302.669" height="210.394" viewBox="0 0 302.669 210.394">
  <path id="Path_12397" data-name="Path 12397" d="M243.5,589.543c1.759-14.142,10.523-28.075,24.01-32.677a65.657,65.657,0,0,0,0,45.078c2.072,5.606,4.961,11.625,3.012,17.275-1.213,3.515-4.18,6.205-7.5,7.887a43.589,43.589,0,0,1-10.633,3.269l-.715.592C245.906,617.936,241.738,603.685,243.5,589.543Z" transform="translate(-224.504 -422.577)" fill="#e4e4e4"/>
  <path id="Path_12398" data-name="Path 12398" d="M274.967,556.867a56.119,56.119,0,0,0-13.951,31.584,24.167,24.167,0,0,0,.275,7.567,13.861,13.861,0,0,0,3.447,6.429c1.554,1.707,3.341,3.273,4.453,5.329a8.487,8.487,0,0,1,.415,6.928,22.052,22.052,0,0,1-4.886,7.288c-2.187,2.419-4.5,4.9-5.427,8.1-.113.389-.709.191-.6-.2,1.618-5.579,7.033-8.747,9.615-13.772a8.6,8.6,0,0,0,.581-7.541c-.988-2.164-2.829-3.781-4.418-5.5a14.79,14.79,0,0,1-3.6-6.16,22.343,22.343,0,0,1-.565-7.529,54.446,54.446,0,0,1,3.976-16.546,57.115,57.115,0,0,1,10.27-16.458c.269-.3.682.172.416.471Z" transform="translate(-231.831 -422.311)" fill="#fff"/>
  <path id="Path_12399" data-name="Path 12399" d="M257.7,601.71a8.42,8.42,0,0,1-6.409-8.82.314.314,0,0,1,.627.031,7.8,7.8,0,0,0,5.979,8.192c.393.094.194.689-.2.6Z" transform="translate(-228.346 -439.37)" fill="#fff"/>
  <path id="Path_12400" data-name="Path 12400" d="M268.265,633.448a16.228,16.228,0,0,0,7.247-9.346c.114-.388.71-.191.6.2a16.88,16.88,0,0,1-7.561,9.71c-.348.207-.629-.356-.282-.561Z" transform="translate(-236.26 -454.073)" fill="#fff"/>
  <path id="Path_12401" data-name="Path 12401" d="M274.622,577.029a4.766,4.766,0,0,0,4.516-.229c.346-.211.626.352.283.561a5.341,5.341,0,0,1-5,.265.325.325,0,0,1-.2-.4.316.316,0,0,1,.4-.2Z" transform="translate(-239.128 -431.922)" fill="#fff"/>
  <path id="Path_12402" data-name="Path 12402" d="M315.953,603.183c-.212.138-.424.276-.636.419a62.765,62.765,0,0,0-8.025,6.266c-.2.175-.392.355-.583.535a66.167,66.167,0,0,0-14.37,19.671,64.262,64.262,0,0,0-3.52,9.107c-1.3,4.31-2.364,9.086-4.935,12.611a11.022,11.022,0,0,1-.859,1.06H259.791c-.053-.026-.106-.048-.159-.074l-.928.042c.037-.164.079-.334.117-.5.021-.1.048-.191.069-.286.016-.064.032-.127.042-.185.005-.021.011-.042.016-.058.011-.058.027-.111.037-.164q.35-1.423.721-2.847c0-.005,0-.005.005-.011a94.48,94.48,0,0,1,7.951-20.875c.106-.2.212-.4.329-.594a61.308,61.308,0,0,1,5.508-8.354,54.23,54.23,0,0,1,3.61-4.129,45.076,45.076,0,0,1,11.28-8.449c8.333-4.4,17.98-6.085,26.886-3.4C315.5,603.04,315.725,603.109,315.953,603.183Z" transform="translate(-231.841 -443.636)" fill="#e4e4e4"/>
  <path id="Path_12403" data-name="Path 12403" d="M316,604.511a56.119,56.119,0,0,0-30.155,16.818,24.167,24.167,0,0,0-4.336,6.207,13.861,13.861,0,0,0-1.118,7.209c.213,2.3.7,4.625.347,6.935a8.487,8.487,0,0,1-3.84,5.782,22.052,22.052,0,0,1-8.289,2.877c-3.2.614-6.539,1.2-9.211,3.2-.324.242-.681-.274-.358-.516,4.65-3.48,10.882-2.75,15.969-5.207a8.6,8.6,0,0,0,5-5.671c.514-2.323.017-4.722-.218-7.048a14.791,14.791,0,0,1,.831-7.089,22.341,22.341,0,0,1,4.082-6.351,54.447,54.447,0,0,1,13.137-10.817,57.116,57.116,0,0,1,18.109-6.958c.4-.078.441.548.048.626Z" transform="translate(-231.937 -444.669)" fill="#fff"/>
  <path id="Path_12404" data-name="Path 12404" d="M312.6,621.509a8.42,8.42,0,0,1,.193-10.9c.268-.3.751.1.482.4a7.8,7.8,0,0,0-.159,10.141C313.373,621.463,312.855,621.818,312.6,621.509Z" transform="translate(-256.271 -447.781)" fill="#fff"/>
  <path id="Path_12405" data-name="Path 12405" d="M298.614,657.135a16.228,16.228,0,0,0,11.413-3.1c.325-.241.682.275.358.516a16.88,16.88,0,0,1-11.883,3.2C298.1,657.708,298.213,657.091,298.614,657.135Z" transform="translate(-250.425 -468.209)" fill="#fff"/>
  <path id="Path_12406" data-name="Path 12406" d="M342.606,612.164a4.766,4.766,0,0,0,3.744,2.536c.4.04.288.657-.112.618a5.341,5.341,0,0,1-4.148-2.8.325.325,0,0,1,.079-.437.316.316,0,0,1,.437.079Z" transform="translate(-271.002 -448.499)" fill="#fff"/>
  <path id="Path_12407" data-name="Path 12407" d="M387.933,463.94l6.16-2.072-5.062-24.744-9.09,3.059Z" transform="translate(-178.542 -261.137)" fill="#ffb6b6"/>
  <path id="Path_12408" data-name="Path 12408" d="M598.805,678.345l1.734-.583,5.843-5.03,4.554,1.532h0a8.156,8.156,0,0,1,10.331,5.13l.085.251-19.861,6.682Z" transform="translate(-391.662 -477.025)" fill="#2f2e41"/>
  <path id="Path_12409" data-name="Path 12409" d="M338.645,458.406l6.324,1.5,8.778-23.682-9.334-2.207Z" transform="translate(-159.136 -259.675)" fill="#ffb6b6"/>
  <path id="Path_12410" data-name="Path 12410" d="M542.832,673.146l1.78.421,7.618-1.183,3.056,3.707h0a8.157,8.157,0,0,1,6.06,9.814l-.061.258-20.392-4.822Z" transform="translate(-364.448 -476.861)" fill="#2f2e41"/>
  <rect id="Rectangle_2276" data-name="Rectangle 2276" width="11.157" height="18.488" transform="translate(136.812 195.277) rotate(180)" fill="#cacaca"/>
  <rect id="Rectangle_2277" data-name="Rectangle 2277" width="2.55" height="32.359" transform="translate(134.822 188.682) rotate(-55.841)" fill="#cacaca"/>
  <rect id="Rectangle_2278" data-name="Rectangle 2278" width="32.359" height="2.55" transform="translate(99.438 204.743) rotate(-34.159)" fill="#cacaca"/>
  <circle id="Ellipse_725" data-name="Ellipse 725" cx="3.506" cy="3.506" r="3.506" transform="translate(158.806 202.29)" fill="#cacaca"/>
  <circle id="Ellipse_726" data-name="Ellipse 726" cx="3.506" cy="3.506" r="3.506" transform="translate(127.567 202.29)" fill="#cacaca"/>
  <circle id="Ellipse_727" data-name="Ellipse 727" cx="3.506" cy="3.506" r="3.506" transform="translate(96.648 202.29)" fill="#cacaca"/>
  <rect id="Rectangle_2279" data-name="Rectangle 2279" width="2.55" height="18.169" transform="translate(129.799 187.627)" fill="#cacaca"/>
  <rect id="Rectangle_2280" data-name="Rectangle 2280" width="4.781" height="24.545" transform="translate(133.624 185.076) rotate(180)" fill="#cacaca"/>
  <path id="Path_12411" data-name="Path 12411" d="M409.742,604.97v-5.738a3.989,3.989,0,0,1,3.985-3.985h37.259a3.989,3.989,0,0,1,3.985,3.984v5.738a3.989,3.989,0,0,1-3.985,3.984H413.726A3.989,3.989,0,0,1,409.742,604.97Z" transform="translate(-302.817 -440.613)" fill="#3f3d56"/>
  <path id="Path_12412" data-name="Path 12412" d="M345.3,548.4l-24.055-41.36a5.887,5.887,0,0,1,2.127-8.04l1.406-.818a5.887,5.887,0,0,1,8.04,2.127l24.055,41.36a5.887,5.887,0,0,1-2.127,8.04l-1.406.818A5.887,5.887,0,0,1,345.3,548.4Z" transform="translate(-260.854 -394.627)" fill="#3f3d56"/>
  <path id="Path_12413" data-name="Path 12413" d="M392.651,595.829a19.635,19.635,0,0,1-19.613-19.613h2.12a17.495,17.495,0,0,0,27.568,14.3l1.223,1.732a19.487,19.487,0,0,1-11.3,3.579Z" transform="translate(-285.569 -431.67)" fill="#3f3d56"/>
  <path id="Path_12414" data-name="Path 12414" d="M438.728,551.111s59.369-18.023,68.38,4.241S524.6,603.058,524.6,603.058l-11.662,3.711L490.146,568.6s-54.94,13.782-66.431-2.385Z" transform="translate(-309.383 -416.636)" fill="#2f2e41"/>
  <path id="Path_12415" data-name="Path 12415" d="M356.47,471.276l-13.782-1.06-2.65,16.962s16.963,44,46.117,48.237L413.719,510.5l-30.528-11.374Z" transform="translate(-270.062 -381.858)" fill="#bc000f"/>
  <circle id="Ellipse_728" data-name="Ellipse 728" cx="18.02" cy="18.02" r="18.02" transform="matrix(0.895, -0.447, 0.447, 0.895, 52.576, 55.138)" fill="#ffb8b8"/>
  <path id="Path_12416" data-name="Path 12416" d="M337.96,420.538a6.114,6.114,0,0,1-3.8,1.116,23.065,23.065,0,0,1-22.746-16.237,15.361,15.361,0,0,1-.153-9.513,20.127,20.127,0,0,1,4.194-6.342c1.354-1.526,2.766-3.021,4.2-4.443a17.5,17.5,0,0,1,6.311-4.473,19.4,19.4,0,0,1,5.829-.763c.677-.02,1.378-.04,2.059-.085a12.031,12.031,0,0,0,4.876-1.216,2.476,2.476,0,0,1,2.05-.132,2.52,2.52,0,0,1,1.472,1.484c.246.665.467,1.265,1.219,1.486a1.717,1.717,0,0,0,1.569-.36.889.889,0,0,1,.829-.181.906.906,0,0,1,.616.583l.062.183a1.156,1.156,0,0,1,1.068-.128,1.185,1.185,0,0,1,.774,1.265,11.876,11.876,0,0,1-2.5,6.036,11.567,11.567,0,0,1-3.462,2.882l-.213.118-.147-.222c-5.989,2.213-7.817,8.487-7.522,13.664l-.524.07a1.282,1.282,0,0,0-.6-.808,1.559,1.559,0,0,0-1.177-.2,2.019,2.019,0,0,0-1.4,1.746,3,3,0,0,0,.827,2.27,8.131,8.131,0,0,0,2.143,1.528c.359.2.731.413,1.083.643a9.707,9.707,0,0,1,4.039,5.629,4.645,4.645,0,0,1-.374,3.746,3.22,3.22,0,0,1-.6.658Z" transform="translate(-256.212 -338.659)" fill="#2f2e41"/>
  <path id="Path_12417" data-name="Path 12417" d="M567.875,577.742a371.478,371.478,0,0,1-8.706,46.181l-11.132-1.59,2.535-44.989" transform="translate(-367.805 -432.2)" fill="#2f2e41"/>
  <path id="Path_12421" data-name="Path 12421" d="M479.356,567.847h-4.975a2.5,2.5,0,0,1-2.5-2.36l-.844-14.988a2.5,2.5,0,0,1,2.5-2.64H480.2a2.5,2.5,0,0,1,2.5,2.64l-.844,14.987A2.5,2.5,0,0,1,479.356,567.847Z" transform="translate(-331.621 -418.344)" fill="#e4e4e4"/>
  <path id="Path_12422" data-name="Path 12422" d="M274.651,356l-.064,1.111H263.433L263.369,356Z" transform="translate(-123.763 -223.016)" fill="#cacaca"/>
  <path id="Path_12423" data-name="Path 12423" d="M274.635,360.714l-.061,1.111H263.7l-.062-1.111Z" transform="translate(-123.888 -225.23)" fill="#cacaca"/>
  <path id="Path_12424" data-name="Path 12424" d="M274.619,365.427l-.064,1.111H263.962l-.064-1.111Z" transform="translate(-124.011 -227.445)" fill="#cacaca"/>
  <path id="Path_12425" data-name="Path 12425" d="M274.6,370.141l-.064,1.11h-10.31l-.064-1.11Z" transform="translate(-124.137 -229.66)" fill="#cacaca"/>
  <path id="Path_12426" data-name="Path 12426" d="M274.587,374.854l-.061,1.111H264.494l-.061-1.111Z" transform="translate(-124.263 -231.875)" fill="#cacaca"/>
  <path id="Path_12427" data-name="Path 12427" d="M274.571,379.567l-.064,1.111h-9.749l-.064-1.111Z" transform="translate(-124.385 -234.09)" fill="#cacaca"/>
  <ellipse id="Ellipse_729" data-name="Ellipse 729" cx="1.804" cy="0.416" rx="1.804" ry="0.416" transform="translate(143.582 129.654)" fill="#cacaca"/>
  <path id="Path_12428" data-name="Path 12428" d="M479.483,541.593a.416.416,0,0,1-.416-.416V533.29h-2.635a.416.416,0,1,1,0-.833h3.051a.416.416,0,0,1,.416.416v8.3A.416.416,0,0,1,479.483,541.593Z" transform="translate(-333.96 -411.107)" fill="#cacaca"/>
  <path id="Path_12429" data-name="Path 12429" d="M456.218,560.985a5.33,5.33,0,0,0-8.031,1.518l-18.649-3.322,3.894,9.04,17.112,1.769a5.359,5.359,0,0,0,5.674-9.005Z" transform="translate(-312.12 -423.664)" fill="#ffb6b6"/>
  <path id="Path_12430" data-name="Path 12430" d="M412.568,539.987,378.39,537.3l-.068-.129c-.131-.247-13.08-24.778-14.986-30.407a15.733,15.733,0,0,1,.026-10.464l.035-.082.077-.045a7.984,7.984,0,0,1,9.865,1.547,56.553,56.553,0,0,1,12.5,22.731l1.331,4.8,24.453,5.477Z" transform="translate(-280.595 -393.56)" fill="#bc000f"/>
  <path id="Path_26" data-name="Path 26" d="M778.66,303.528l-.363.467.093-.12q.047-.059.094-.117t.1-.113l.1-.111Z" transform="translate(-476.009 -303.528)" fill="#f2f2f2"/>
  <path id="Path_12432" data-name="Path 12432" d="M479.154,699.319h-270.5a.631.631,0,1,1,0-1.262h270.5a.631.631,0,1,1,0,1.262Z" transform="translate(-208.027 -488.925)" fill="#cacaca"/>
</svg>
