<svg xmlns="http://www.w3.org/2000/svg" width="108.675" height="94.5" viewBox="0 0 108.675 94.5">
  <g id="Group_7744" data-name="Group 7744" transform="translate(-1096.226 -1010.783)">
    <g id="Group_7743" data-name="Group 7743" transform="translate(1096.226 1010.783)">
      <path id="Path_12006" data-name="Path 12006" d="M7.813,55.062c0,26.1,21.619,47.25,48.286,47.25s48.286-21.154,48.286-47.25S82.767,7.812,56.1,7.812,7.813,28.966,7.813,55.062Z" transform="translate(-7.813 -7.812)" fill="#33ff03"/>
      <path id="Path_12007" data-name="Path 12007" d="M56.1,7.812c-26.667,0-48.286,21.154-48.286,47.25s21.619,47.25,48.286,47.25,48.286-21.154,48.286-47.25S82.767,7.812,56.1,7.812Zm0,87.413c-24.334,0-44.061-19.3-44.061-43.115S31.765,8.994,56.1,8.994,100.16,28.3,100.16,52.109,80.433,95.224,56.1,95.224Z" transform="translate(-7.813 -7.812)" fill="#33ff03"/>
      <path id="Path_12008" data-name="Path 12008" d="M80.729,24.377c0,1.957,6.486,3.544,14.486,3.544S109.7,26.334,109.7,24.377s-6.486-3.544-14.486-3.544S80.729,22.42,80.729,24.377Z" transform="translate(-46.929 -14.927)" fill="#525252"/>
      <path id="Path_12009" data-name="Path 12009" d="M176.13,145.305h0a47.713,47.713,0,0,1-19.773,20.223l-2.7-6.19-1.328-3.048a17.116,17.116,0,0,1,.386-13.844,13.708,13.708,0,0,1,9.416-7.844,10.891,10.891,0,0,1,11.154,3.993,11.467,11.467,0,0,1,1.908,3.473Z" transform="translate(-84.652 -76.934)" fill="#33ff03"/>
      <path id="Path_12010" data-name="Path 12010" d="M196.483,140.328a10.752,10.752,0,0,1,.145,9.733,14.366,14.366,0,0,1-8.329,7.607l-19.918,6.568-8.112-18.9a13.9,13.9,0,0,1,.29-11.151,11.164,11.164,0,0,1,7.605-6.331,8.831,8.831,0,0,1,10.478,6.071l1.545,4.867,4.829-2.1A8.908,8.908,0,0,1,196.483,140.328Z" transform="translate(-89.047 -73.28)" fill="#fa0a0a"/>
      <path id="Path_12011" data-name="Path 12011" d="M113.049,164.492a6.153,6.153,0,0,1-3.02-.8,1.167,1.167,0,0,1-.439-1.615,1.221,1.221,0,0,1,1.65-.429,3.684,3.684,0,0,0,1.811.479,3.544,3.544,0,1,0,0-7.087,1.182,1.182,0,1,1,0-2.363,3.545,3.545,0,1,0,0-7.087,3.689,3.689,0,0,0-1.809.478,1.222,1.222,0,0,1-1.65-.429,1.167,1.167,0,0,1,.439-1.615,6.155,6.155,0,0,1,3.017-.8,5.98,5.98,0,0,1,6.039,5.906,5.861,5.861,0,0,1-2.418,4.725,5.86,5.86,0,0,1,2.418,4.725A5.979,5.979,0,0,1,113.049,164.492Z" transform="translate(-62.324 -81.804)" fill="#45413c"/>
      <path id="Path_12012" data-name="Path 12012" d="M36.458,133.752c0,1.961,2.7,3.543,6.036,3.543s6.036-1.583,6.036-3.543-2.7-3.544-6.036-3.544S36.458,131.791,36.458,133.752Z" transform="translate(-23.18 -74.689)" fill="#f2c768"/>
      <path id="Path_12013" data-name="Path 12013" d="M169.494,110.663a5.381,5.381,0,0,1-5.432-5.315,1.208,1.208,0,0,1,2.415,0,3.018,3.018,0,0,0,6.035,0,1.208,1.208,0,0,1,2.415,0A5.381,5.381,0,0,1,169.494,110.663Z" transform="translate(-91.633 -60.461)" fill="#45413c"/>
      <path id="Path_12014" data-name="Path 12014" d="M41.89,110.663a5.381,5.381,0,0,1-5.432-5.315,1.208,1.208,0,0,1,2.415,0,3.019,3.019,0,0,0,6.036,0,1.207,1.207,0,0,1,2.414,0A5.381,5.381,0,0,1,41.89,110.663Z" transform="translate(-23.18 -60.461)" fill="#45413c"/>
    </g>
  </g>
</svg>
