<svg id="Menu_Icon_-_Search" data-name="Menu Icon - Search" xmlns="http://www.w3.org/2000/svg" width="28" height="28" viewBox="0 0 28 28">
  <g id="Ellipse_512" data-name="Ellipse 512" fill="none" stroke="#3f3d56" stroke-width="2">
    <circle cx="14" cy="14" r="14" stroke="none"/>
    <circle cx="14" cy="14" r="13" fill="none"/>
  </g>
  <g id="Search_Icon" data-name="Search Icon" transform="translate(6 6)">
    <g id="invisible_box" data-name="invisible box" transform="translate(0 0)">
      <rect id="Rectangle_1795" data-name="Rectangle 1795" width="16" height="16" transform="translate(0 0)" fill="none"/>
    </g>
    <g id="icons_Q2" data-name="icons Q2" transform="translate(1.418 1.756)">
      <path id="Path_5125" data-name="Path 5125" d="M12.338,11.678a4.747,4.747,0,0,0,.962-3.5A4.875,4.875,0,0,0,8.874,3.948a4.819,4.819,0,1,0-.962,9.59,4.907,4.907,0,0,0,3.528-.93l4.009,3.977a.609.609,0,0,0,.9,0h0a.609.609,0,0,0,0-.9ZM9.1,12.255A3.528,3.528,0,0,1,5.058,8.15a3.517,3.517,0,1,1,6.928,1.219A3.56,3.56,0,0,1,9.1,12.255Z" transform="translate(-3.574 -3.924)" fill="#3f3d56"/>
    </g>
  </g>
</svg>
