<svg id="Group_11582" data-name="Group 11582" xmlns="http://www.w3.org/2000/svg" width="228.582" height="158.894" viewBox="0 0 228.582 158.894">
  <path id="Path_12397" data-name="Path 12397" d="M243.4,581.544c1.328-10.68,7.947-21.2,18.132-24.678a49.586,49.586,0,0,0,0,34.044c1.565,4.234,3.747,8.779,2.275,13.046a11.084,11.084,0,0,1-5.662,5.956,32.921,32.921,0,0,1-8.03,2.469l-.54.447C245.216,602.987,242.069,592.224,243.4,581.544Z" transform="translate(-229.053 -455.448)" fill="#e4e4e4"/>
  <path id="Path_12398" data-name="Path 12398" d="M270.98,556.729a42.382,42.382,0,0,0-10.536,23.853,18.252,18.252,0,0,0,.208,5.715,10.468,10.468,0,0,0,2.6,4.855,21.669,21.669,0,0,1,3.363,4.024,6.41,6.41,0,0,1,.313,5.233,16.653,16.653,0,0,1-3.69,5.5c-1.652,1.827-3.4,3.7-4.1,6.119-.085.294-.535.144-.45-.149,1.222-4.213,5.311-6.606,7.262-10.4a6.491,6.491,0,0,0,.439-5.7,16.809,16.809,0,0,0-3.336-4.151,11.17,11.17,0,0,1-2.723-4.652,16.874,16.874,0,0,1-.427-5.686,41.119,41.119,0,0,1,3-12.5,43.136,43.136,0,0,1,7.756-12.429c.2-.227.515.13.314.356Z" transform="translate(-238.403 -455.108)" fill="#fff"/>
  <path id="Path_12399" data-name="Path 12399" d="M256.125,599.481a6.359,6.359,0,0,1-4.84-6.661c.024-.3.5-.281.474.024a5.888,5.888,0,0,0,4.515,6.187C256.571,599.1,256.421,599.551,256.125,599.481Z" transform="translate(-233.957 -476.878)" fill="#fff"/>
  <path id="Path_12400" data-name="Path 12400" d="M268.226,631.109a12.256,12.256,0,0,0,5.473-7.059c.086-.293.536-.144.45.149a12.748,12.748,0,0,1-5.71,7.333c-.263.156-.475-.268-.213-.424Z" transform="translate(-244.055 -495.641)" fill="#fff"/>
  <path id="Path_12401" data-name="Path 12401" d="M274.521,576.962a3.6,3.6,0,0,0,3.411-.173c.261-.159.473.265.213.424a4.034,4.034,0,0,1-3.773.2.245.245,0,0,1-.151-.3A.238.238,0,0,1,274.521,576.962Z" transform="translate(-247.716 -467.374)" fill="#fff"/>
  <path id="Path_12402" data-name="Path 12402" d="M301.94,602.815c-.16.1-.32.208-.48.316a47.4,47.4,0,0,0-6.061,4.732c-.148.132-.3.268-.44.4a49.97,49.97,0,0,0-10.853,14.856A48.533,48.533,0,0,0,281.447,630c-.981,3.255-1.785,6.862-3.727,9.524a8.321,8.321,0,0,1-.649.8H259.525c-.04-.02-.08-.036-.12-.056l-.7.032c.028-.124.06-.252.088-.376.016-.072.036-.144.052-.216.012-.048.024-.1.032-.14,0-.016.008-.032.012-.044.008-.044.02-.084.028-.124q.264-1.075.544-2.15s0,0,0-.008a71.354,71.354,0,0,1,6-15.765c.08-.148.16-.3.248-.448a46.3,46.3,0,0,1,4.159-6.309A40.944,40.944,0,0,1,272.6,611.6a34.043,34.043,0,0,1,8.519-6.381c6.293-3.323,13.579-4.6,20.3-2.566C301.6,602.707,301.768,602.759,301.94,602.815Z" transform="translate(-238.417 -482.321)" fill="#e4e4e4"/>
  <path id="Path_12403" data-name="Path 12403" d="M302.023,604.356a42.383,42.383,0,0,0-22.774,12.7,18.253,18.253,0,0,0-3.275,4.688,10.468,10.468,0,0,0-.844,5.444,21.666,21.666,0,0,1,.262,5.238,6.41,6.41,0,0,1-2.9,4.367,16.654,16.654,0,0,1-6.26,2.173c-2.419.464-4.938.907-6.957,2.418-.245.183-.514-.207-.27-.39,3.512-2.628,8.218-2.077,12.06-3.932a6.491,6.491,0,0,0,3.779-4.283,16.807,16.807,0,0,0-.165-5.323,11.171,11.171,0,0,1,.627-5.354,16.872,16.872,0,0,1,3.083-4.8,41.12,41.12,0,0,1,9.921-8.169,43.134,43.134,0,0,1,13.676-5.254c.3-.059.333.414.036.473Z" transform="translate(-238.539 -483.64)" fill="#fff"/>
  <path id="Path_12404" data-name="Path 12404" d="M312.132,618.814a6.359,6.359,0,0,1,.146-8.233c.2-.228.567.075.364.3a5.888,5.888,0,0,0-.12,7.658C312.717,618.779,312.326,619.048,312.132,618.814Z" transform="translate(-269.592 -487.611)" fill="#fff"/>
  <path id="Path_12405" data-name="Path 12405" d="M298.525,656.361a12.256,12.256,0,0,0,8.62-2.341c.245-.182.515.208.27.39a12.748,12.748,0,0,1-8.974,2.417C298.136,656.794,298.222,656.328,298.525,656.361Z" transform="translate(-262.132 -513.68)" fill="#fff"/>
  <path id="Path_12406" data-name="Path 12406" d="M342.467,612.131a3.6,3.6,0,0,0,2.828,1.915c.3.03.217.5-.085.467a4.033,4.033,0,0,1-3.133-2.112.245.245,0,0,1,.06-.33.238.238,0,0,1,.33.06Z" transform="translate(-288.39 -488.528)" fill="#fff"/>
  <path id="Path_12407" data-name="Path 12407" d="M385.977,457.376l4.652-1.565-3.823-18.687-6.865,2.31Z" transform="translate(-227.84 -304.215)" fill="#ffb6b6"/>
  <path id="Path_12408" data-name="Path 12408" d="M598.805,676.972l1.309-.44,4.413-3.8,3.439,1.157h0a6.16,6.16,0,0,1,7.8,3.874l.064.19-15,5.046Z" transform="translate(-442.366 -524.93)" fill="#2f2e41"/>
  <path id="Path_12409" data-name="Path 12409" d="M338.645,452.435l4.776,1.13,6.629-17.885L343,434.013Z" transform="translate(-203.076 -302.349)" fill="#ffb6b6"/>
  <path id="Path_12410" data-name="Path 12410" d="M542.357,672.96l1.344.318,5.753-.893,2.308,2.8h0a6.16,6.16,0,0,1,4.577,7.412l-.046.195-15.4-3.642Z" transform="translate(-407.638 -524.721)" fill="#2f2e41"/>
  <rect id="Rectangle_2276" data-name="Rectangle 2276" width="8.426" height="13.963" transform="translate(103.323 147.477) rotate(180)" fill="#cacaca"/>
  <rect id="Rectangle_2277" data-name="Rectangle 2277" width="1.926" height="24.438" transform="translate(101.82 142.496) rotate(-55.841)" fill="#cacaca"/>
  <rect id="Rectangle_2278" data-name="Rectangle 2278" width="24.438" height="1.926" transform="translate(75.098 154.626) rotate(-34.159)" fill="#cacaca"/>
  <circle id="Ellipse_725" data-name="Ellipse 725" cx="2.648" cy="2.648" r="2.648" transform="translate(119.934 152.773)" fill="#cacaca"/>
  <circle id="Ellipse_726" data-name="Ellipse 726" cx="2.648" cy="2.648" r="2.648" transform="translate(96.342 152.773)" fill="#cacaca"/>
  <circle id="Ellipse_727" data-name="Ellipse 727" cx="2.648" cy="2.648" r="2.648" transform="translate(72.99 152.773)" fill="#cacaca"/>
  <rect id="Rectangle_2279" data-name="Rectangle 2279" width="1.926" height="13.722" transform="translate(98.027 141.7)" fill="#cacaca"/>
  <rect id="Rectangle_2280" data-name="Rectangle 2280" width="3.611" height="18.537" transform="translate(100.916 139.774) rotate(180)" fill="#cacaca"/>
  <path id="Path_12411" data-name="Path 12411" d="M409.742,602.59v-4.333a3.013,3.013,0,0,1,3.009-3.009H440.89a3.013,3.013,0,0,1,3.009,3.009v4.333a3.013,3.013,0,0,1-3.009,3.009H412.751A3.013,3.013,0,0,1,409.742,602.59Z" transform="translate(-328.99 -478.464)" fill="#3f3d56"/>
  <path id="Path_12412" data-name="Path 12412" d="M339.213,535.916l-18.167-31.236a4.446,4.446,0,0,1,1.606-6.072l1.062-.618a4.446,4.446,0,0,1,6.072,1.606l18.167,31.236a4.446,4.446,0,0,1-1.606,6.072l-1.062.618A4.446,4.446,0,0,1,339.213,535.916Z" transform="translate(-275.441 -419.781)" fill="#3f3d56"/>
  <path id="Path_12413" data-name="Path 12413" d="M387.85,591.028a14.829,14.829,0,0,1-14.812-14.812h1.6a13.212,13.212,0,0,0,20.82,10.8l.923,1.308a14.717,14.717,0,0,1-8.532,2.7Z" transform="translate(-306.979 -467.052)" fill="#3f3d56"/>
  <path id="Path_12414" data-name="Path 12414" d="M435.053,549.425s44.837-13.611,51.642,3.2,13.211,36.029,13.211,36.029l-8.807,2.8-17.214-28.824s-41.492,10.408-50.17-1.8Z" transform="translate(-337.369 -447.866)" fill="#2f2e41"/>
  <path id="Path_12415" data-name="Path 12415" d="M352.448,471.017l-10.409-.8-2,12.81s12.81,33.227,34.828,36.43l20.817-18.815-23.055-8.59Z" transform="translate(-287.19 -403.486)" fill="#bc000f"/>
  <circle id="Ellipse_728" data-name="Ellipse 728" cx="13.609" cy="13.609" r="13.609" transform="matrix(0.895, -0.447, 0.447, 0.895, 39.706, 41.642)" fill="#ffb8b8"/>
  <path id="Path_12416" data-name="Path 12416" d="M331.255,410.2a4.617,4.617,0,0,1-2.87.843,17.42,17.42,0,0,1-17.178-12.262,11.6,11.6,0,0,1-.115-7.184,15.2,15.2,0,0,1,3.167-4.79c1.022-1.153,2.089-2.282,3.171-3.355a13.218,13.218,0,0,1,4.766-3.378,14.651,14.651,0,0,1,4.4-.576c.511-.015,1.041-.03,1.555-.064a9.085,9.085,0,0,0,3.682-.918,1.87,1.87,0,0,1,1.548-.1,1.9,1.9,0,0,1,1.111,1.121c.186.5.353.955.921,1.122a1.3,1.3,0,0,0,1.185-.272.672.672,0,0,1,.626-.137.684.684,0,0,1,.465.441l.047.138a.873.873,0,0,1,.806-.1.9.9,0,0,1,.585.955,8.968,8.968,0,0,1-1.885,4.559,8.735,8.735,0,0,1-2.615,2.177l-.161.089-.111-.168c-4.523,1.671-5.9,6.409-5.68,10.319l-.4.053a.968.968,0,0,0-.454-.61,1.178,1.178,0,0,0-.889-.155,1.525,1.525,0,0,0-1.06,1.318,2.263,2.263,0,0,0,.625,1.714,6.141,6.141,0,0,0,1.619,1.154c.271.153.552.312.818.486a7.331,7.331,0,0,1,3.051,4.251,3.508,3.508,0,0,1-.283,2.829A2.43,2.43,0,0,1,331.255,410.2Z" transform="translate(-269.517 -348.36)" fill="#2f2e41"/>
  <path id="Path_12417" data-name="Path 12417" d="M563.02,577.645a280.543,280.543,0,0,1-6.575,34.877l-8.407-1.2,1.915-33.977" transform="translate(-411.922 -467.728)" fill="#2f2e41"/>
  <path id="Path_12421" data-name="Path 12421" d="M477.32,562.954h-3.757a1.888,1.888,0,0,1-1.885-1.782l-.637-11.319a1.887,1.887,0,0,1,1.885-1.993h5.032a1.887,1.887,0,0,1,1.885,1.994l-.637,11.319A1.888,1.888,0,0,1,477.32,562.954Z" transform="translate(-365.748 -450.047)" fill="#e4e4e4"/>
  <path id="Path_12422" data-name="Path 12422" d="M271.889,356l-.048.839h-8.424l-.048-.839Z" transform="translate(-157.935 -255.568)" fill="#cacaca"/>
  <path id="Path_12423" data-name="Path 12423" d="M271.942,360.714l-.046.839h-8.214l-.046-.839Z" transform="translate(-158.095 -258.394)" fill="#cacaca"/>
  <path id="Path_12424" data-name="Path 12424" d="M272,365.427l-.048.839h-8l-.048-.839Z" transform="translate(-158.253 -261.22)" fill="#cacaca"/>
  <path id="Path_12425" data-name="Path 12425" d="M272.048,370.141l-.048.838h-7.786l-.048-.838Z" transform="translate(-158.413 -264.047)" fill="#cacaca"/>
  <path id="Path_12426" data-name="Path 12426" d="M272.1,374.854l-.046.839h-7.577l-.046-.839Z" transform="translate(-158.573 -266.873)" fill="#cacaca"/>
  <path id="Path_12427" data-name="Path 12427" d="M272.153,379.567l-.048.839h-7.363l-.048-.839Z" transform="translate(-158.73 -269.7)" fill="#cacaca"/>
  <ellipse id="Ellipse_729" data-name="Ellipse 729" cx="1.363" cy="0.314" rx="1.363" ry="0.314" transform="translate(108.436 97.917)" fill="#cacaca"/>
  <path id="Path_12428" data-name="Path 12428" d="M478.634,539.357a.315.315,0,0,1-.314-.315v-5.956h-1.99a.315.315,0,0,1,0-.629h2.3a.315.315,0,0,1,.315.315v6.27A.315.315,0,0,1,478.634,539.357Z" transform="translate(-368.732 -440.811)" fill="#cacaca"/>
  <path id="Path_12429" data-name="Path 12429" d="M449.688,560.543a4.026,4.026,0,0,0-6.065,1.147l-14.084-2.509,2.941,6.828,12.923,1.336a4.047,4.047,0,0,0,4.285-6.8Z" transform="translate(-340.861 -456.836)" fill="#ffb6b6"/>
  <path id="Path_12430" data-name="Path 12430" d="M400.3,529l-25.812-2.029-.051-.1c-.1-.187-9.879-18.713-11.318-22.964a11.881,11.881,0,0,1,.02-7.9l.026-.062.058-.034a6.03,6.03,0,0,1,7.45,1.168,42.71,42.71,0,0,1,9.443,17.167l1.005,3.628,18.467,4.136Z" transform="translate(-300.632 -418.419)" fill="#bc000f"/>
  <path id="Path_26" data-name="Path 26" d="M778.571,303.528l-.274.353.07-.091.071-.089.073-.086.074-.084Z" transform="translate(-550.003 -303.528)" fill="#f2f2f2"/>
  <path id="Path_12432" data-name="Path 12432" d="M412.788,699.01H208.5a.477.477,0,1,1,0-.953H412.788a.477.477,0,1,1,0,.953Z" transform="translate(-208.027 -540.116)" fill="#cacaca"/>
</svg>
