<svg id="Group_11588" data-name="Group 11588" xmlns="http://www.w3.org/2000/svg" width="123.656" height="147.223" viewBox="0 0 123.656 147.223">
  <path id="Path_12434" data-name="Path 12434" d="M268.813,629.606a16.4,16.4,0,0,1-4.388,4.078c-.362.229-.733.446-1.111.646h-8.888c.106-.213.21-.429.31-.646a30.786,30.786,0,0,0-6.406-35.3,25.974,25.974,0,0,1,13.586,9.482,20.815,20.815,0,0,1,3.3,7.426,31.084,31.084,0,0,0-2.476-15.63,25.966,25.966,0,0,1,9.053,13.877A19.716,19.716,0,0,1,268.813,629.606Z" transform="translate(-170.728 -487.752)" fill="#f0f0f0"/>
  <path id="Path_12445" data-name="Path 12445" d="M455.528,374.471a3.611,3.611,0,0,1,3.851,3.977L471,383.894l-5.686,3.482-10.16-5.706a3.63,3.63,0,0,1,.378-7.2Z" transform="translate(-435.17 -336.127)" fill="#ffb6b6"/>
  <path id="Path_12446" data-name="Path 12446" d="M176.968,478.313h-4.012l-1.909-15.475h5.922Z" transform="translate(-108.537 -335.182)" fill="#ffb6b6"/>
  <path id="Path_12447" data-name="Path 12447" d="M360.918,694.99h-7.9a5.036,5.036,0,0,0-5.035,5.035v.164h12.937Z" transform="translate(-291.464 -553.169)" fill="#2f2e41"/>
  <path id="Path_12448" data-name="Path 12448" d="M240.378,478.313h-4.012l-1.909-15.475h5.922Z" transform="translate(-192.42 -335.182)" fill="#ffb6b6"/>
  <path id="Path_12449" data-name="Path 12449" d="M424.328,694.99h-7.9a5.036,5.036,0,0,0-5.035,5.035v.164h12.937Z" transform="translate(-375.346 -553.169)" fill="#2f2e41"/>
  <path id="Path_12450" data-name="Path 12450" d="M167.533,262.159l-2.036,4.384-3.671,39.208,2.854,33.7h6.675l7.876-53.119,3.7,51.895,9.006-.364,1.729-70.358Z" transform="translate(-122.254 -199.295)" fill="#2f2e41"/>
  <path id="Path_12451" data-name="Path 12451" d="M349.471,331.168l-8.443-3.435-11.916.668-10.594,3.861-3.535,39.471c9.217,5.033,18.553,6.407,28.051,2.808l8.815-25.709Z" transform="translate(-271.741 -304.486)" fill="#bc000f"/>
  <path id="Path_12452" data-name="Path 12452" d="M429.025,342.18l-3.747-1.043s-2.834-1.843-3.766,3.635-5.73,14-5.73,14l-8.213-4.377-3.8,8.3,12.97,7.856L430.4,356.789Z" transform="translate(-378.953 -313.359)" fill="#bc000f"/>
  <path id="Path_40" data-name="Path 40" d="M358.574,279.794h0a8.591,8.591,0,1,0-15.723-6.929l-.049.114a8.593,8.593,0,1,0,15.775,6.817Z" transform="translate(-287.951 -263.86)" fill="#ffb6b6"/>
  <path id="Path_72" data-name="Path 72" d="M337.686,263.8c-1.786.324-4.551,1.449-6.085.129a7.52,7.52,0,0,1,2.784-2.036,1.715,1.715,0,0,0,.576-.326c.523-.529.119-1.439.358-2.154a1.846,1.846,0,0,1,1.271-1.048c.533-.159,1.09-.185,1.614-.378,1.238-.465,2.118-1.8,3.387-2.158a4.064,4.064,0,0,1,3.172.757,7.493,7.493,0,0,0,3.014,1.378c.834.076,1.362,1.448,2.2,1.488,1.755.085,1.657-1.071,1.787.772.075,1.1,1.647,3.289,1.621,4.4-.026.727.1,1.447.082,2.177a5.655,5.655,0,0,1-1.565,3.717,22.853,22.853,0,0,0-2.511,2.312,15.029,15.029,0,0,1-1,1.527,1.266,1.266,0,0,1-1.551.4c-.454-.321-.463-1.016-.688-1.545a1.69,1.69,0,0,0-1.679-1.022,1.979,1.979,0,0,0-1.615,1.318c.213-1.169.774-2.264.987-3.434s-.065-2.567-1.072-3.024c-.432-.2-1.017-.255-1.19-.719a4.184,4.184,0,0,1-.05-.911C341.312,263.938,338.851,263.572,337.686,263.8Z" transform="translate(-278.726 -255.728)" fill="#2f2e41"/>
  <path id="Path_12453" data-name="Path 12453" d="M299.874,443.913a3.611,3.611,0,0,1,4.718-2.9l7.835-10.16,2.166,6.306-7.773,8.682a3.63,3.63,0,0,1-6.947-1.93Z" transform="translate(-229.594 -374.314)" fill="#ffb6b6"/>
  <path id="Path_12454" data-name="Path 12454" d="M265.22,340.278l2.706-1.916s6.191-.355,7.092,4.729l11.353,18.676L272.3,381.185,265.471,374l8.611-10.063-7.23-13.275Z" transform="translate(-190.197 -311.679)" fill="#bc000f"/>
  <path id="Path_12455" data-name="Path 12455" d="M495.048,340.595h.142v-3.89a2.251,2.251,0,0,1,2.251-2.251h8.241a2.251,2.251,0,0,1,2.251,2.251v21.338a2.251,2.251,0,0,1-2.251,2.251h-8.24a2.251,2.251,0,0,1-2.251-2.251v-14.68h-.142Z" transform="translate(-485.961 -309.037)" fill="#3f3d56"/>
  <path id="Path_12456" data-name="Path 12456" d="M498.653,336.268h1.076a.8.8,0,0,0,.74,1.1h4.721a.8.8,0,0,0,.74-1.1h1a1.681,1.681,0,0,1,1.681,1.681v21.307a1.681,1.681,0,0,1-1.681,1.681h-8.28a1.681,1.681,0,0,1-1.681-1.681h0V337.949A1.681,1.681,0,0,1,498.653,336.268Z" transform="translate(-487.263 -310.265)" fill="#fe0313"/>
  <path id="Path_12462" data-name="Path 12462" d="M180.424,710.368h123.01a.323.323,0,1,0,0-.646H180.424a.323.323,0,1,0,0,.646Z" transform="translate(-180.102 -563.145)" fill="#cacaca"/>
</svg>
